# Exported from Wings 3D 2.1.5
mtllib untitled2.mtl
o object_0
#42 vertices, 29 faces
v 2.5000000e-2 -1.50000000 0.0000000e+0
v 7.5000000e-2 1.50000000 0.0000000e+0
v 1.5308085e-18 -1.50000000 2.5000000e-2
v 4.5924255e-18 1.50000000 7.5000000e-2
v -3.7007434e-17 1.16666667 -1.33333333
v -3.7007434e-17 1.16666667 -2.00000000
v -1.1102230e-16 1.50000000 -2.00000000
v -1.1102230e-16 1.50000000 -1.33333333
v 3.7007434e-17 0.83333333 -1.33333333
v 3.7007434e-17 0.83333333 -2.00000000
v 1.1102230e-16 0.50000000 -1.33333333
v 1.1102230e-16 0.50000000 -2.00000000
v -3.7007434e-17 1.16666667 -0.66666667
v -1.1102230e-16 1.50000000 -0.66666667
v 3.7007434e-17 0.83333333 -0.66666667
v 1.1102230e-16 0.50000000 -0.66666667
v -3.7007434e-17 1.16666667 -6.9444444e-2
v -4.4782105e-17 1.20168067 -7.0028011e-2
v -4.4782105e-17 1.20168067 -7.0028011e-2
v -1.1102230e-16 1.50000000 -7.5000000e-2
v 3.7007434e-17 0.83333333 -6.3888889e-2
v 2.9854737e-17 0.86554622 -6.4425770e-2
v 2.9854737e-17 0.86554622 -6.4425770e-2
v -3.7007434e-17 1.16666667 -6.9444444e-2
v 1.1102230e-16 0.50000000 -5.8333333e-2
v 1.0449158e-16 0.52941176 -5.8823529e-2
v 1.0449158e-16 0.52941176 -5.8823529e-2
v 3.7007434e-17 0.83333333 -6.3888889e-2
v -4.5924255e-18 -1.50000000 -2.5000000e-2
v -1.3777276e-17 1.50000000 -7.5000000e-2
v 2.5000000e-2 -1.50000000 -6.1232340e-18
v 7.5000000e-2 1.50000000 -1.8369702e-17
v 0.0000000e+0 -1.50000000 0.0000000e+0
v 2.5000000e-2 -1.50000000 0.0000000e+0
v 1.5308085e-18 -1.50000000 2.5000000e-2
v -4.5924255e-18 -1.50000000 -2.5000000e-2
v 2.5000000e-2 -1.50000000 -6.1232340e-18
v 0.0000000e+0 1.50000000 0.0000000e+0
v 4.5924255e-18 1.50000000 7.5000000e-2
v 7.5000000e-2 1.50000000 0.0000000e+0
v 7.5000000e-2 1.50000000 -1.8369702e-17
v -1.3777276e-17 1.50000000 -7.5000000e-2
vt 0.0000000e+0 0.33333333
vt 6.0873094e-3 0.89247557
vt 6.0873094e-3 0.99401610
vt 6.0873094e-3 0.68939450
vt 6.0873094e-3 0.79093503
vt 0.20916838 0.79093503
vt 0.20916838 0.89247557
vt 0.20916838 0.99401610
vt 0.20916838 0.68939450
vt 0.33333333 0.33333333
vt 0.41224944 0.99401610
vt 0.41224944 0.68939450
vt 0.41224944 0.79093503
vt 0.41224944 0.89247557
vt 0.59332603 0.99296219
vt 0.59399847 0.90314159
vt 0.59417623 0.89247557
vt 0.59478886 0.90172567
vt 0.59492839 0.89103875
vt 0.59517088 0.78906160
vt 0.59570503 0.80074777
vt 0.59586858 0.79093503
vt 0.59641734 0.80170220
vt 0.59660742 0.70286948
vt 0.59741159 0.69835396
vt 0.59756092 0.68939450
vt 0.66666667 0.33333333
vt 0.81487207 0.99403323
vt 0.82164355 1.3012957e-2
vt 0.83320352 1.2956528e-2
vt 0.84955197 0.99386395
vt 0.91280146 1.9365118e-2
vt 0.92435688 1.9036290e-2
vt 0.92914991 1.00027254
vt 0.96381619 0.99928605
vn -0.70705768 1.1784295e-2 -0.70705768
vn -0.70705768 1.1784295e-2 -0.70705768
vn -0.70705768 1.1784295e-2 -0.70705768
vn -0.70705768 1.1784295e-2 -0.70705768
vn -1.00000000 -2.2204460e-16 0.0000000e+0
vn -1.00000000 -2.2204460e-16 0.0000000e+0
vn -1.00000000 -2.2204460e-16 0.0000000e+0
vn -1.00000000 -2.2204460e-16 0.0000000e+0
vn -1.00000000 -2.2204460e-16 0.0000000e+0
vn -1.00000000 -2.2204460e-16 0.0000000e+0
vn -1.00000000 -2.2204460e-16 0.0000000e+0
vn -1.00000000 -2.2204460e-16 0.0000000e+0
vn -1.00000000 -2.2204460e-16 -1.8305721e-31
vn -1.00000000 -2.2204460e-16 0.0000000e+0
vn -1.00000000 -2.2204460e-16 -9.9321691e-32
vn -1.00000000 -2.2204460e-16 0.0000000e+0
vn -1.00000000 -2.2204460e-16 0.0000000e+0
vn -1.00000000 -2.2204460e-16 0.0000000e+0
vn -1.00000000 -2.2204460e-16 0.0000000e+0
vn -1.00000000 -2.2204460e-16 0.0000000e+0
vn -1.00000000 -2.2204460e-16 -6.4070022e-31
vn -1.00000000 -2.2204460e-16 -1.2814004e-30
vn -1.00000000 -2.2204460e-16 0.0000000e+0
vn -1.00000000 -2.2204460e-16 0.0000000e+0
vn -1.00000000 -2.2204460e-16 -3.4762592e-31
vn -1.00000000 -2.2204460e-16 -6.9525183e-31
vn -1.00000000 -2.2204460e-16 0.0000000e+0
vn -1.00000000 -2.2204460e-16 0.0000000e+0
vn -0.70705768 1.1784295e-2 0.70705768
vn -0.70705768 1.1784295e-2 0.70705768
vn -0.70705768 1.1784295e-2 0.70705768
vn -0.70705768 1.1784295e-2 0.70705768
vn 0.0000000e+0 1.00000000 1.1021821e-14
vn 0.0000000e+0 1.00000000 0.0000000e+0
vn 0.0000000e+0 1.00000000 0.0000000e+0
vn 0.0000000e+0 1.00000000 2.2043642e-14
vn 0.0000000e+0 1.00000000 2.2043642e-14
vn 0.0000000e+0 -1.00000000 -1.2425155e-15
vn 0.0000000e+0 -1.00000000 2.4492936e-15
vn 0.0000000e+0 -1.00000000 2.4492936e-15
vn 0.0000000e+0 -1.00000000 -4.9343246e-15
vn 0.0000000e+0 -1.00000000 -4.9343246e-15
g object_0_default
usemtl default
s 1
f 1/32/1 3/33/3 2/34/2
f 3/33/3 4/35/4 2/34/2
f 5/7/5 7/3/7 6/2/6
f 5/7/5 8/8/8 7/3/7
f 5/7/5 13/14/13 8/8/8
f 5/7/5 15/13/15 13/14/13
f 6/2/6 9/6/9 5/7/5
f 6/2/6 10/5/10 9/6/9
f 9/6/9 15/13/15 5/7/5
f 9/6/9 16/12/16 15/13/15
f 10/5/10 11/9/11 9/6/9
f 10/5/10 12/4/12 11/9/11
f 11/9/11 16/12/16 9/6/9
f 13/14/13 14/11/14 8/8/8
f 13/14/13 17/17/17 14/11/14
f 15/13/15 21/22/21 13/14/13
f 16/12/16 25/26/25 15/13/15
f 17/17/17 18/16/18 14/11/14
f 19/18/19 20/15/20 14/1/14
f 21/22/21 22/21/22 13/14/13
f 23/23/23 24/19/24 13/10/13
f 25/26/25 26/25/26 15/13/15
f 27/24/27 28/20/28 15/27/15
f 29/29/29 31/30/31 30/28/30
f 31/30/31 32/31/32 30/28/30
f 33//33 35//35 34//34
g object_0_object_0_auv
usemtl object_0_auv
s 1
f 33//33 37//37 36//36
f 38//38 40//40 39//39
f 38//38 42//42 41//41
