# Exported from Wings 3D 2.1.5
mtllib flagtest3e.mtl
o object_0
#38 vertices, 34 faces
v 2.5000000e-2 -1.50000000 0.0000000e+0
v 1.5308085e-18 -1.50000000 2.5000000e-2
v -2.5000000e-2 -1.50000000 3.0616170e-18
v -4.5924255e-18 -1.50000000 -2.5000000e-2
v 2.5000000e-2 -1.50000000 -6.1232340e-18
v 7.5000000e-2 1.50000000 0.0000000e+0
v 4.5924255e-18 1.50000000 7.5000000e-2
v -7.5000000e-2 1.50000000 9.1848510e-18
v -1.3777276e-17 1.50000000 -7.5000000e-2
v 7.5000000e-2 1.50000000 -1.8369702e-17
v 0.0000000e+0 -1.50000000 0.0000000e+0
v 2.5000000e-2 -1.50000000 0.0000000e+0
v 1.5308085e-18 -1.50000000 2.5000000e-2
v -2.5000000e-2 -1.50000000 3.0616170e-18
v -4.5924255e-18 -1.50000000 -2.5000000e-2
v 2.5000000e-2 -1.50000000 -6.1232340e-18
v 0.0000000e+0 1.50000000 0.0000000e+0
v 7.5000000e-2 1.50000000 0.0000000e+0
v 4.5924255e-18 1.50000000 7.5000000e-2
v -7.5000000e-2 1.50000000 9.1848510e-18
v -1.3777276e-17 1.50000000 -7.5000000e-2
v 7.5000000e-2 1.50000000 -1.8369702e-17
v -1.1102230e-16 1.50000000 -2.00000000
v -3.7007434e-17 1.16666667 -2.00000000
v 3.7007434e-17 0.83333333 -2.00000000
v 1.1102230e-16 0.50000000 -2.00000000
v -1.1102230e-16 1.50000000 -1.33333333
v -3.7007434e-17 1.16666667 -1.33333333
v 3.7007434e-17 0.83333333 -1.33333333
v 1.1102230e-16 0.50000000 -1.33333333
v -1.1102230e-16 1.50000000 -0.66666667
v -3.7007434e-17 1.16666667 -0.66666667
v 3.7007434e-17 0.83333333 -0.66666667
v 1.1102230e-16 0.50000000 -0.66666667
v -1.1102230e-16 1.50000000 0.0000000e+0
v -3.7007434e-17 1.16666667 0.0000000e+0
v 3.7007434e-17 0.83333333 0.0000000e+0
v 1.1102230e-16 0.50000000 0.0000000e+0
vt 0.0000000e+0 0.50000000
vt 3.7510105e-3 0.89562298
vt 3.7510105e-3 0.99659783
vt 3.7510105e-3 0.69367328
vt 3.7510105e-3 0.79464813
vt 0.20570071 0.79464813
vt 0.20570071 0.89562298
vt 0.20570071 0.99659783
vt 0.20570071 0.69367328
vt 0.40765040 0.69367328
vt 0.40765040 0.79464813
vt 0.40765040 0.89562298
vt 0.40765040 0.99659783
vt 0.50000000 1.00000000
vt 0.50000000 0.0000000e+0
vt 0.50000000 0.50000000
vt 0.50392889 9.3903111e-2
vt 0.58872889 9.1031111e-3
vt 0.58872889 9.3903111e-2
vt 0.58872889 0.17870311
vt 0.60960010 0.69367328
vt 0.60960010 0.79464813
vt 0.60960010 0.89562298
vt 0.60960010 0.99659783
vt 0.67352889 9.3903111e-2
vt 0.67870222 2.5722222e-3
vt 0.67870222 0.32157222
vt 0.75845222 2.5722222e-3
vt 0.75845222 0.32157222
vt 0.83820222 2.5722222e-3
vt 0.83820222 0.32157222
vt 0.91795222 2.5722222e-3
vt 0.91795222 0.32157222
vt 0.99770222 2.5722222e-3
vt 0.99770222 0.32157222
vt 1.00000000 0.50000000
vt 1.00000000 0.50000000
vn -0.70705768 1.1784295e-2 -0.70705768
vn -0.31618824 1.5809412e-2 -0.94856473
vn 0.94856473 1.5809412e-2 -0.31618824
vn 0.31618824 1.5809412e-2 0.94856473
vn -0.70705768 1.1784295e-2 0.70705768
vn -0.70705768 1.1784295e-2 -0.70705768
vn 0.31618824 1.5809412e-2 -0.94856473
vn 0.94856473 1.5809412e-2 0.31618824
vn -0.31618824 1.5809412e-2 0.94856473
vn -0.70705768 1.1784295e-2 0.70705768
vn 0.0000000e+0 1.00000000 3.6739404e-15
vn 0.0000000e+0 1.00000000 0.0000000e+0
vn 0.0000000e+0 1.00000000 -3.6739404e-15
vn 0.0000000e+0 1.00000000 -3.6739404e-15
vn 0.0000000e+0 1.00000000 1.1021821e-14
vn 0.0000000e+0 1.00000000 2.2043642e-14
vn 0.0000000e+0 -1.00000000 -1.2425155e-15
vn 0.0000000e+0 -1.00000000 0.0000000e+0
vn 0.0000000e+0 -1.00000000 -1.2246468e-15
vn 0.0000000e+0 -1.00000000 -1.2246468e-15
vn 0.0000000e+0 -1.00000000 -1.2603842e-15
vn 0.0000000e+0 -1.00000000 -2.5207683e-15
vn -1.00000000 -2.2204460e-16 0.0000000e+0
vn -1.00000000 -2.2204460e-16 0.0000000e+0
vn -1.00000000 -2.2204460e-16 0.0000000e+0
vn -1.00000000 -2.2204460e-16 0.0000000e+0
vn -1.00000000 -2.2204460e-16 0.0000000e+0
vn -1.00000000 -2.2204460e-16 0.0000000e+0
vn -1.00000000 -2.2204460e-16 0.0000000e+0
vn -1.00000000 -2.2204460e-16 0.0000000e+0
vn -1.00000000 -2.2204460e-16 0.0000000e+0
vn -1.00000000 -2.2204460e-16 0.0000000e+0
vn -1.00000000 -2.2204460e-16 0.0000000e+0
vn -1.00000000 -2.2204460e-16 0.0000000e+0
vn -1.00000000 -2.2204460e-16 0.0000000e+0
vn -1.00000000 -2.2204460e-16 0.0000000e+0
vn -1.00000000 -2.2204460e-16 0.0000000e+0
vn -1.00000000 -2.2204460e-16 0.0000000e+0
g object_0_default
usemtl default
s 1
f 2/28/2 6/27/6 1/26/1
f 2/28/2 7/29/7 6/27/6
f 3/30/3 7/29/7 2/28/2
f 3/30/3 8/31/8 7/29/7
f 4/32/4 8/31/8 3/30/3
f 4/32/4 9/33/9 8/31/8
f 5/34/5 9/33/9 4/32/4
f 5/34/5 10/35/10 9/33/9
f 11/16/11 13/15/13 12/36/12
f 11/16/11 14/1/14 13/15/13
f 11/16/11 15/14/15 14/1/14
f 11/16/11 16/37/16 15/14/15
f 18/25/18 19/18/19 17/19/17
f 19/18/19 20/17/20 17/19/17
f 20/17/20 21/20/21 17/19/17
f 21/20/21 22/25/22 17/19/17
f 23/3/23 28/7/28 27/8/27
f 24/2/24 28/7/28 23/3/23
f 24/2/24 29/6/29 28/7/28
f 25/5/25 29/6/29 24/2/24
f 25/5/25 30/9/30 29/6/29
f 26/4/26 30/9/30 25/5/25
f 27/8/27 32/12/32 31/13/31
f 28/7/28 32/12/32 27/8/27
f 28/7/28 33/11/33 32/12/32
f 29/6/29 33/11/33 28/7/28
f 29/6/29 34/10/34 33/11/33
f 30/9/30 34/10/34 29/6/29
f 31/13/31 36/23/36 35/24/35
f 32/12/32 36/23/36 31/13/31
f 32/12/32 37/22/37 36/23/36
f 33/11/33 37/22/37 32/12/32
f 33/11/33 38/21/38 37/22/37
f 34/10/34 38/21/38 33/11/33
