# Exported from Wings 3D 2.1.5
mtllib untitled.mtl
o object_0
#42 vertices, 29 faces
v 2.5000000e-2 -1.50000000 0.0000000e+0
v 7.5000000e-2 1.50000000 0.0000000e+0
v 1.5308085e-18 -1.50000000 2.5000000e-2
v 4.5924255e-18 1.50000000 7.5000000e-2
v -3.7007434e-17 1.16666667 -1.33333333
v -3.7007434e-17 1.16666667 -2.00000000
v -1.1102230e-16 1.50000000 -2.00000000
v -1.1102230e-16 1.50000000 -1.33333333
v 3.7007434e-17 0.83333333 -1.33333333
v 3.7007434e-17 0.83333333 -2.00000000
v 1.1102230e-16 0.50000000 -1.33333333
v 1.1102230e-16 0.50000000 -2.00000000
v -3.7007434e-17 1.16666667 -0.66666667
v -1.1102230e-16 1.50000000 -0.66666667
v 3.7007434e-17 0.83333333 -0.66666667
v 1.1102230e-16 0.50000000 -0.66666667
v -3.7007434e-17 1.16666667 -6.9444444e-2
v -4.4782105e-17 1.20168067 -7.0028011e-2
v -4.4782105e-17 1.20168067 -7.0028011e-2
v -1.1102230e-16 1.50000000 -7.5000000e-2
v 3.7007434e-17 0.83333333 -6.3888889e-2
v 2.9854737e-17 0.86554622 -6.4425770e-2
v 2.9854737e-17 0.86554622 -6.4425770e-2
v -3.7007434e-17 1.16666667 -6.9444444e-2
v 1.1102230e-16 0.50000000 -5.8333333e-2
v 1.0449158e-16 0.52941176 -5.8823529e-2
v 1.0449158e-16 0.52941176 -5.8823529e-2
v 3.7007434e-17 0.83333333 -6.3888889e-2
v -4.5924255e-18 -1.50000000 -2.5000000e-2
v -1.3777276e-17 1.50000000 -7.5000000e-2
v 2.5000000e-2 -1.50000000 -6.1232340e-18
v 7.5000000e-2 1.50000000 -1.8369702e-17
v 0.0000000e+0 -1.50000000 0.0000000e+0
v 2.5000000e-2 -1.50000000 0.0000000e+0
v 1.5308085e-18 -1.50000000 2.5000000e-2
v -4.5924255e-18 -1.50000000 -2.5000000e-2
v 2.5000000e-2 -1.50000000 -6.1232340e-18
v 0.0000000e+0 1.50000000 0.0000000e+0
v 4.5924255e-18 1.50000000 7.5000000e-2
v 7.5000000e-2 1.50000000 0.0000000e+0
v 7.5000000e-2 1.50000000 -1.8369702e-17
v -1.3777276e-17 1.50000000 -7.5000000e-2
vt 0.0000000e+0 0.33333333
vt 6.0873094e-3 0.89247557
vt 6.0873094e-3 0.99401610
vt 6.0873094e-3 0.68939450
vt 6.0873094e-3 0.79093503
vt 0.20916838 0.79093503
vt 0.20916838 0.89247557
vt 0.20916838 0.99401610
vt 0.20916838 0.68939450
vt 0.23804607 0.30843324
vt 0.23832556 2.5083333e-2
vt 0.23832556 0.31088333
vt 0.33333333 0.33333333
vt 0.41224944 0.99401610
vt 0.41224944 0.68939450
vt 0.41224944 0.79093503
vt 0.41224944 0.89247557
vt 0.50000000 0.50000000
vt 0.52412556 2.5083333e-2
vt 0.52672120 0.59710838
vt 0.52827556 0.59601667
vt 0.52849222 0.30860333
vt 0.52849222 2.3603333e-2
vt 0.59077363 0.99755378
vt 0.59233315 0.90398250
vt 0.59399847 0.90314159
vt 0.59417623 0.89247557
vt 0.59492839 0.89103875
vt 0.59517088 0.78906160
vt 0.59570503 0.80074777
vt 0.59586858 0.79093503
vt 0.59641734 0.80170220
vt 0.59660742 0.70286948
vt 0.59741159 0.69835396
vt 0.59756092 0.68939450
vt 0.66666667 0.33333333
vt 0.81327556 0.31101667
vt 0.81349222 0.30860333
vt 0.86005429 0.99056657
vt 0.86682577 9.5462902e-3
vt 0.87838574 9.4898613e-3
vt 0.88152923 9.2828956e-3
vt 0.89308466 8.9540680e-3
vt 0.89473420 0.99039728
vt 0.89787769 0.99019032
vt 0.93254397 0.98920383
vn -0.70705768 1.1784295e-2 -0.70705768
vn -0.70705768 1.1784295e-2 -0.70705768
vn -0.70705768 1.1784295e-2 -0.70705768
vn -0.70705768 1.1784295e-2 -0.70705768
vn -1.00000000 -2.2204460e-16 0.0000000e+0
vn -1.00000000 -2.2204460e-16 0.0000000e+0
vn -1.00000000 -2.2204460e-16 0.0000000e+0
vn -1.00000000 -2.2204460e-16 0.0000000e+0
vn -1.00000000 -2.2204460e-16 0.0000000e+0
vn -1.00000000 -2.2204460e-16 0.0000000e+0
vn -1.00000000 -2.2204460e-16 0.0000000e+0
vn -1.00000000 -2.2204460e-16 0.0000000e+0
vn -1.00000000 -2.2204460e-16 -1.8305721e-31
vn -1.00000000 -2.2204460e-16 0.0000000e+0
vn -1.00000000 -2.2204460e-16 -9.9321691e-32
vn -1.00000000 -2.2204460e-16 0.0000000e+0
vn -1.00000000 -2.2204460e-16 0.0000000e+0
vn -1.00000000 -2.2204460e-16 0.0000000e+0
vn -1.00000000 -2.2204460e-16 0.0000000e+0
vn -1.00000000 -2.2204460e-16 0.0000000e+0
vn -1.00000000 -2.2204460e-16 -6.4070022e-31
vn -1.00000000 -2.2204460e-16 -1.2814004e-30
vn -1.00000000 -2.2204460e-16 0.0000000e+0
vn -1.00000000 -2.2204460e-16 0.0000000e+0
vn -1.00000000 -2.2204460e-16 -3.4762592e-31
vn -1.00000000 -2.2204460e-16 -6.9525183e-31
vn -1.00000000 -2.2204460e-16 0.0000000e+0
vn -1.00000000 -2.2204460e-16 0.0000000e+0
vn -0.70705768 1.1784295e-2 0.70705768
vn -0.70705768 1.1784295e-2 0.70705768
vn -0.70705768 1.1784295e-2 0.70705768
vn -0.70705768 1.1784295e-2 0.70705768
vn 0.0000000e+0 1.00000000 1.1021821e-14
vn 0.0000000e+0 1.00000000 0.0000000e+0
vn 0.0000000e+0 1.00000000 0.0000000e+0
vn 0.0000000e+0 1.00000000 2.2043642e-14
vn 0.0000000e+0 1.00000000 2.2043642e-14
vn 0.0000000e+0 -1.00000000 -1.2425155e-15
vn 0.0000000e+0 -1.00000000 2.4492936e-15
vn 0.0000000e+0 -1.00000000 2.4492936e-15
vn 0.0000000e+0 -1.00000000 -4.9343246e-15
vn 0.0000000e+0 -1.00000000 -4.9343246e-15
g object_0_default
usemtl default
s 1
f 1/42/1 3/43/3 2/45/2
f 3/43/3 4/46/4 2/45/2
f 5/7/5 7/3/7 6/2/6
f 5/7/5 8/8/8 7/3/7
f 5/7/5 13/17/13 8/8/8
f 5/7/5 15/16/15 13/17/13
f 6/2/6 9/6/9 5/7/5
f 6/2/6 10/5/10 9/6/9
f 9/6/9 15/16/15 5/7/5
f 9/6/9 16/15/16 15/16/15
f 10/5/10 11/9/11 9/6/9
f 10/5/10 12/4/12 11/9/11
f 11/9/11 16/15/16 9/6/9
f 13/17/13 14/14/14 8/8/8
f 13/17/13 17/27/17 14/14/14
f 15/16/15 21/31/21 13/17/13
f 16/15/16 25/35/25 15/16/15
f 17/27/17 18/26/18 14/14/14
f 19/25/19 20/24/20 14/1/14
f 21/31/21 22/30/22 13/17/13
f 23/32/23 24/28/24 13/13/13
f 25/35/25 26/34/26 15/16/15
f 27/33/27 28/29/28 15/36/15
f 29/40/29 31/41/31 30/39/30
f 31/41/31 32/44/32 30/39/30
f 33/22/33 35/23/35 34/38/34
f 33/18/33 37/37/37 36/21/36
f 38/11/38 40/19/40 39/12/39
f 38/18/38 42/10/42 41/20/41
