# Exported from Wings 3D 2.1.5
mtllib flagtest2.mtl
o object_0
#26 vertices, 18 faces
v 2.5000000e-2 -1.50000000 0.0000000e+0
v 1.5308085e-18 -1.50000000 2.5000000e-2
v -2.5000000e-2 -1.50000000 3.0616170e-18
v -4.5924255e-18 -1.50000000 -2.5000000e-2
v 2.5000000e-2 -1.50000000 -6.1232340e-18
v 7.5000000e-2 1.50000000 0.0000000e+0
v 4.5924255e-18 1.50000000 7.5000000e-2
v -7.5000000e-2 1.50000000 9.1848510e-18
v -1.3777276e-17 1.50000000 -7.5000000e-2
v 7.5000000e-2 1.50000000 -1.8369702e-17
v 0.0000000e+0 -1.50000000 0.0000000e+0
v 2.5000000e-2 -1.50000000 0.0000000e+0
v 1.5308085e-18 -1.50000000 2.5000000e-2
v -2.5000000e-2 -1.50000000 3.0616170e-18
v -4.5924255e-18 -1.50000000 -2.5000000e-2
v 2.5000000e-2 -1.50000000 -6.1232340e-18
v 0.0000000e+0 1.50000000 0.0000000e+0
v 7.5000000e-2 1.50000000 0.0000000e+0
v 4.5924255e-18 1.50000000 7.5000000e-2
v -7.5000000e-2 1.50000000 9.1848510e-18
v -1.3777276e-17 1.50000000 -7.5000000e-2
v 7.5000000e-2 1.50000000 -1.8369702e-17
v -1.1102230e-16 1.50000000 -2.00000000
v 1.1102230e-16 0.50000000 -2.00000000
v -1.1102230e-16 1.50000000 0.0000000e+0
v 1.1102230e-16 0.50000000 0.0000000e+0
vt 0.0000000e+0 1.00000000
vt 6.9388939e-18 1.3883104e-4
vt 1.1781023e-2 0.0000000e+0
vt 3.5343068e-2 0.99958351
vt 3.5343068e-2 1.00000000
vt 3.5343068e-2 1.3883104e-4
vt 4.7124091e-2 0.0000000e+0
vt 7.0686136e-2 0.99958351
vt 7.0686136e-2 1.00000000
vt 7.0686136e-2 1.3883104e-4
vt 8.2467158e-2 0.0000000e+0
vt 0.10602920 0.99958351
vt 0.10602920 1.00000000
vt 0.11781023 0.0000000e+0
vt 0.14137227 0.99958351
vt 0.14137227 0.99958351
vt 0.16493432 0.0000000e+0
vt 0.17671534 1.1102230e-16
vt 0.17671534 0.33324078
vt 0.17671534 0.35823383
vt 0.17671534 1.3883104e-4
vt 0.17671534 0.39155791
vt 0.18504636 0.38322689
vt 0.18504636 0.39155791
vt 0.18504636 0.39988893
vt 0.19337738 0.39155791
vt 0.20170840 0.33324078
vt 0.20170840 0.35823383
vt 0.20170840 0.38322689
vt 0.22670146 0.35823383
vt 0.84319689 0.0000000e+0
vt 0.84319689 0.33324078
vn -0.70705768 1.1784295e-2 -0.70705768
vn -0.31618824 1.5809412e-2 -0.94856473
vn 0.94856473 1.5809412e-2 -0.31618824
vn 0.31618824 1.5809412e-2 0.94856473
vn -0.70705768 1.1784295e-2 0.70705768
vn -0.70705768 1.1784295e-2 -0.70705768
vn 0.31618824 1.5809412e-2 -0.94856473
vn 0.94856473 1.5809412e-2 0.31618824
vn -0.31618824 1.5809412e-2 0.94856473
vn -0.70705768 1.1784295e-2 0.70705768
vn 0.0000000e+0 1.00000000 3.6739404e-15
vn 0.0000000e+0 1.00000000 0.0000000e+0
vn 0.0000000e+0 1.00000000 -3.6739404e-15
vn 0.0000000e+0 1.00000000 -3.6739404e-15
vn 0.0000000e+0 1.00000000 1.1021821e-14
vn 0.0000000e+0 1.00000000 2.2043642e-14
vn 0.0000000e+0 -1.00000000 -1.2425155e-15
vn 0.0000000e+0 -1.00000000 0.0000000e+0
vn 0.0000000e+0 -1.00000000 -1.2246468e-15
vn 0.0000000e+0 -1.00000000 -1.2246468e-15
vn 0.0000000e+0 -1.00000000 -1.2603842e-15
vn 0.0000000e+0 -1.00000000 -2.5207683e-15
vn -1.00000000 -2.2204460e-16 0.0000000e+0
vn -1.00000000 -2.2204460e-16 0.0000000e+0
vn -1.00000000 -2.2204460e-16 0.0000000e+0
vn -1.00000000 -2.2204460e-16 0.0000000e+0
g object_0_object_0_auv
usemtl object_0_auv
s 1
f 2/11/2 6/9/6 1/10/1
f 2/11/2 7/12/7 6/9/6
f 3/21/3 7/15/7 2/17/2
f 3/14/3 8/16/8 7/13/7
f 4/7/4 8/5/8 3/6/3
f 4/7/4 9/8/9 8/5/8
f 5/3/5 9/1/9 4/2/4
f 5/3/5 10/4/10 9/1/9
f 11/24/11 13/23/13 12/26/12
f 11/24/11 14/22/14 13/23/13
f 11/24/11 15/25/15 14/22/14
f 11/24/11 16/26/16 15/25/15
f 18/20/18 19/27/19 17/28/17
f 19/27/19 20/30/20 17/28/17
f 20/30/20 21/29/21 17/28/17
f 21/29/21 22/20/22 17/28/17
f 23/19/23 26/31/26 25/32/25
f 24/18/24 26/31/26 23/19/23
